<svg width="24" height="24" viewBox="0 0 24 24" fill="none" xmlns="http://www.w3.org/2000/svg">
<path d="M11.6248 10.6249H12.3748M11.6248 11.3749H12.3748M17 10.8C17 13.451 13.25 18 12 18C10.75 18 7 13.451 7 10.8C7 8.14903 9.23858 6 12 6C14.7614 6 17 8.14903 17 10.8ZM13 11C13 11.5523 12.5523 12 12 12C11.4477 12 11 11.5523 11 11C11 10.4477 11.4477 10 12 10C12.5523 10 13 10.4477 13 11ZM23 12C23 18.0751 18.0751 23 12 23C5.92487 23 1 18.0751 1 12C1 5.92487 5.92487 1 12 1C18.0751 1 23 5.92487 23 12Z" stroke="white" stroke-width="2" stroke-linecap="round"/>
</svg>
