<svg width="24" height="24" viewBox="0 0 24 24" fill="none" xmlns="http://www.w3.org/2000/svg">
<path d="M12 23C5.92487 23 1 18.0751 1 12C1 5.92487 5.92487 1 12 1C17.3921 1 21.8781 4.87976 22.8186 10M7.35069 2.37544C7.44006 5.28477 8.28106 10.0978 11.4478 8.00691C15.4062 5.39334 14.5697 6.13512 16.7604 6.58341C18.5129 6.94204 20.0664 6.04266 20.6241 5.54813M2.46055 7.30907C2.52681 8.84423 3.17509 12.294 5.23821 13.8117C7.81711 15.7089 10.5855 14.4495 8.53352 22.2462M13.5414 15.0458L15.5279 21.0005C15.8812 22.0596 17.3668 22.0938 17.7672 21.0521L18.4896 19.1726C18.6103 18.8584 18.8585 18.6102 19.1727 18.4894L21.0522 17.767C22.094 17.3666 22.0598 15.8811 21.0007 15.5278L15.0459 13.5413C14.1157 13.2309 13.231 14.1156 13.5414 15.0458Z" stroke="#00718F" stroke-width="2" stroke-linecap="round"/>
</svg>
